<?xml version="1.0" encoding="utf-8"?>
<!-- Generator: Adobe Illustrator 28.4.1, SVG Export Plug-In . SVG Version: 6.00 Build 0)  -->
<svg version="1.2" baseProfile="tiny" id="Layer_1" xmlns="http://www.w3.org/2000/svg" xmlns:xlink="http://www.w3.org/1999/xlink"
	 x="0px" y="0px" viewBox="0 0 1625.1 1214.5" overflow="visible" xml:space="preserve">
<g>
	<path fill="#1F4B7F" d="M726.9,191.8l-188.2,63.5l188.2,63.5v162.4L363.6,358.7V152L726.9,29.4V191.8z"/>
	<path fill="#06B6D4" d="M1249,152v206.7L885.7,481.3V318.8l188.2-63.5l-188.2-63.5V29.4L1249,152z"/>
	<g>
		<path fill="#1F4B7F" d="M30.2,1110.5v-383c0-47,40.8-74.7,87.8-74.7c47,0,87.1,27.7,87.1,74.7V890h-72.6V734.4
			c0-10.4-4.1-19.4-14.5-19.4c-10.4,0-15.2,9-15.2,19.4v369.1c0,10.4,4.8,19.4,15.2,19.4c10.4,0,14.5-9,14.5-19.4V948h72.6v162.4
			c0,47-40.1,74.7-87.1,74.7C71,1185.1,30.2,1157.5,30.2,1110.5z"/>
		<path fill="#1F4B7F" d="M221.8,1110.5v-383c0-47,40.8-74.7,87.8-74.7c47,0,87.1,27.7,87.1,74.7v383c0,47-40.1,74.7-87.1,74.7
			C262.6,1185.1,221.8,1157.5,221.8,1110.5z M294.4,1103.6c0,10.4,4.8,19.4,15.2,19.4c10.4,0,14.5-9,14.5-19.4V734.4
			c0-10.4-4.1-19.4-14.5-19.4c-10.4,0-15.2,9-15.2,19.4V1103.6z"/>
		<path fill="#1F4B7F" d="M412.8,1110.5V975.7h72.6v127.9c0,10.4,4.8,19.4,15.2,19.4s14.5-9,14.5-19.4v-98.9
			c0-39.4-102.3-97.5-102.3-164.5V727.5c0-47,40.8-74.7,87.8-74.7c47,0,87.1,27.7,87.1,74.7v134.8h-72.6V734.4
			c0-10.4-4.1-19.4-14.5-19.4s-15.2,9-15.2,19.4v98.9c0,44.2,102.3,109.9,102.3,164.5v112.7c0,47-40.1,74.7-87.1,74.7
			C453.6,1185.1,412.8,1157.5,412.8,1110.5z"/>
		<path fill="#1F4B7F" d="M772.7,730.3h-51.8v447.9h-72.6V730.3h-51.8v-70.5h176.3V730.3z"/>
		<path fill="#06B6D4" d="M830.1,1178.2l-53.2-518.5h72.6l21.4,365.7L893,659.8h72.6l-56,518.5H830.1z"/>
		<path fill="#06B6D4" d="M977.5,1178.2V659.8h72.6v518.5H977.5z"/>
		<path fill="#06B6D4" d="M1066.5,1110.5V975.7h72.6v127.9c0,10.4,4.8,19.4,15.2,19.4s14.5-9,14.5-19.4v-98.9
			c0-39.4-102.3-97.5-102.3-164.5V727.5c0-47,40.8-74.7,87.8-74.7c47,0,87.1,27.7,87.1,74.7v134.8h-72.6V734.4
			c0-10.4-4.1-19.4-14.5-19.4s-15.2,9-15.2,19.4v98.9c0,44.2,102.3,109.9,102.3,164.5v112.7c0,47-40.1,74.7-87.1,74.7
			C1107.2,1185.1,1066.5,1157.5,1066.5,1110.5z"/>
		<path fill="#06B6D4" d="M1426.4,730.3h-51.8v447.9H1302V730.3h-51.8v-70.5h176.3V730.3z"/>
		<path fill="#06B6D4" d="M1538.8,659.8l56,518.5h-72.6l-6.9-111.3l-31.8,26.3l-4.8,85h-72.6l53.2-518.5H1538.8z M1511.2,999.9
			l-11.1-187.3l-11.8,206L1511.2,999.9z"/>
	</g>
</g>
</svg>
